<?xml version="1.0" encoding="UTF-8" standalone="no"?><svg xmlns="http://www.w3.org/2000/svg" xmlns:xlink="http://www.w3.org/1999/xlink" contentScriptType="application/ecmascript" contentStyleType="text/css" height="592px" preserveAspectRatio="none" style="width:832px;height:592px;background:#FFFFFF;" version="1.1" viewBox="0 0 832 592" width="832px" zoomAndPan="magnify"><defs><filter height="300%" id="f85sps1p75jt3" width="300%" x="-1" y="-1"><feGaussianBlur result="blurOut" stdDeviation="2.0"/><feColorMatrix in="blurOut" result="blurOut2" type="matrix" values="0 0 0 0 0 0 0 0 0 0 0 0 0 0 0 0 0 0 .4 0"/><feOffset dx="4.0" dy="4.0" in="blurOut2" result="blurOut3"/><feBlend in="SourceGraphic" in2="blurOut3" mode="normal"/></filter></defs><g><!--MD5=[a4ea2dcb44ebd57046df9af95d8b8c12]
class Gender--><rect codeLine="3" fill="#FEFECE" filter="url(#f85sps1p75jt3)" height="73.6094" id="Gender" style="stroke:#A80036;stroke-width:1.5;" width="77" x="7" y="275"/><ellipse cx="22" cy="291" fill="#EB937F" rx="11" ry="11" style="stroke:#A80036;stroke-width:1.0;"/><path d="M20.7969,291.875 L22.25,291.875 L22.25,291.9844 C22.25,292.3906 22.2813,292.5469 22.3594,292.7031 C22.5156,292.9531 22.7969,293.1094 23.0938,293.1094 C23.3438,293.1094 23.6094,292.9688 23.7656,292.75 C23.8906,292.5938 23.9219,292.4375 23.9219,291.9844 L23.9219,290.0625 C23.9219,289.9063 23.9219,289.8594 23.9063,289.7031 C23.8438,289.2344 23.5313,288.9219 23.0781,288.9219 C22.8281,288.9219 22.5625,289.0625 22.3906,289.2813 C22.2813,289.4531 22.25,289.6094 22.25,290.0625 L22.25,290.1875 L20.7969,290.1875 L20.7969,287.7813 L24.7813,287.7813 L24.7813,288.6406 C24.7813,289.0469 24.8125,289.2188 24.8906,289.375 C25.0625,289.625 25.3438,289.7813 25.625,289.7813 C25.8906,289.7813 26.1563,289.6406 26.3281,289.4219 C26.4375,289.25 26.4688,289.1094 26.4688,288.6406 L26.4688,286.0938 L18.8438,286.0938 C18.4063,286.0938 18.2813,286.1094 18.125,286.2031 C17.875,286.3594 17.7188,286.6563 17.7188,286.9375 C17.7188,287.2188 17.8594,287.4688 18.0781,287.6406 C18.2344,287.75 18.4219,287.7813 18.8438,287.7813 L19.0938,287.7813 L19.0938,294.2969 L18.8438,294.2969 C18.4375,294.2969 18.2813,294.3125 18.125,294.4219 C17.875,294.5938 17.7188,294.8594 17.7188,295.1563 C17.7188,295.4219 17.8594,295.6719 18.0781,295.8281 C18.2188,295.9531 18.4531,296 18.8438,296 L26.8438,296 L26.8438,293.4219 C26.8438,292.9844 26.8125,292.8438 26.7344,292.6875 C26.5625,292.4375 26.2813,292.2813 26,292.2813 C25.7344,292.2813 25.4688,292.3906 25.2969,292.6406 C25.1875,292.7969 25.1563,292.9375 25.1563,293.4219 L25.1563,294.2969 L20.7969,294.2969 L20.7969,291.875 Z " fill="#000000"/><text fill="#000000" font-family="sans-serif" font-size="12" lengthAdjust="spacing" textLength="45" x="36" y="295.1543">Gender</text><line style="stroke:#A80036;stroke-width:1.5;" x1="8" x2="83" y1="307" y2="307"/><text fill="#000000" font-family="sans-serif" font-size="11" lengthAdjust="spacing" textLength="30" x="13" y="321.2104">MALE</text><text fill="#000000" font-family="sans-serif" font-size="11" lengthAdjust="spacing" textLength="43" x="13" y="334.0151">FEMALE</text><line style="stroke:#A80036;stroke-width:1.5;" x1="8" x2="83" y1="340.6094" y2="340.6094"/><!--MD5=[e09c41c2f9238e7adb85a94dde2227e7]
class Size--><rect codeLine="8" fill="#FEFECE" filter="url(#f85sps1p75jt3)" height="112.0234" id="Size" style="stroke:#A80036;stroke-width:1.5;" width="58" x="139.5" y="454"/><ellipse cx="154.5" cy="470" fill="#EB937F" rx="11" ry="11" style="stroke:#A80036;stroke-width:1.0;"/><path d="M153.2969,470.875 L154.75,470.875 L154.75,470.9844 C154.75,471.3906 154.7813,471.5469 154.8594,471.7031 C155.0156,471.9531 155.2969,472.1094 155.5938,472.1094 C155.8438,472.1094 156.1094,471.9688 156.2656,471.75 C156.3906,471.5938 156.4219,471.4375 156.4219,470.9844 L156.4219,469.0625 C156.4219,468.9063 156.4219,468.8594 156.4063,468.7031 C156.3438,468.2344 156.0313,467.9219 155.5781,467.9219 C155.3281,467.9219 155.0625,468.0625 154.8906,468.2813 C154.7813,468.4531 154.75,468.6094 154.75,469.0625 L154.75,469.1875 L153.2969,469.1875 L153.2969,466.7813 L157.2813,466.7813 L157.2813,467.6406 C157.2813,468.0469 157.3125,468.2188 157.3906,468.375 C157.5625,468.625 157.8438,468.7813 158.125,468.7813 C158.3906,468.7813 158.6563,468.6406 158.8281,468.4219 C158.9375,468.25 158.9688,468.1094 158.9688,467.6406 L158.9688,465.0938 L151.3438,465.0938 C150.9063,465.0938 150.7813,465.1094 150.625,465.2031 C150.375,465.3594 150.2188,465.6563 150.2188,465.9375 C150.2188,466.2188 150.3594,466.4688 150.5781,466.6406 C150.7344,466.75 150.9219,466.7813 151.3438,466.7813 L151.5938,466.7813 L151.5938,473.2969 L151.3438,473.2969 C150.9375,473.2969 150.7813,473.3125 150.625,473.4219 C150.375,473.5938 150.2188,473.8594 150.2188,474.1563 C150.2188,474.4219 150.3594,474.6719 150.5781,474.8281 C150.7188,474.9531 150.9531,475 151.3438,475 L159.3438,475 L159.3438,472.4219 C159.3438,471.9844 159.3125,471.8438 159.2344,471.6875 C159.0625,471.4375 158.7813,471.2813 158.5,471.2813 C158.2344,471.2813 157.9688,471.3906 157.7969,471.6406 C157.6875,471.7969 157.6563,471.9375 157.6563,472.4219 L157.6563,473.2969 L153.2969,473.2969 L153.2969,470.875 Z " fill="#000000"/><text fill="#000000" font-family="sans-serif" font-size="12" lengthAdjust="spacing" textLength="26" x="168.5" y="474.1543">Size</text><line style="stroke:#A80036;stroke-width:1.5;" x1="140.5" x2="196.5" y1="486" y2="486"/><text fill="#000000" font-family="sans-serif" font-size="11" lengthAdjust="spacing" textLength="16" x="145.5" y="500.2104">XS</text><text fill="#000000" font-family="sans-serif" font-size="11" lengthAdjust="spacing" textLength="8" x="145.5" y="513.0151">S</text><text fill="#000000" font-family="sans-serif" font-size="11" lengthAdjust="spacing" textLength="9" x="145.5" y="525.8198">M</text><text fill="#000000" font-family="sans-serif" font-size="11" lengthAdjust="spacing" textLength="6" x="145.5" y="538.6245">L</text><text fill="#000000" font-family="sans-serif" font-size="11" lengthAdjust="spacing" textLength="14" x="145.5" y="551.4292">XL</text><line style="stroke:#A80036;stroke-width:1.5;" x1="140.5" x2="196.5" y1="558.0234" y2="558.0234"/><!--MD5=[45d42ff7800d812d5f83c7d3273eb427]
class UserRole--><rect codeLine="16" fill="#FEFECE" filter="url(#f85sps1p75jt3)" height="73.6094" id="UserRole" style="stroke:#A80036;stroke-width:1.5;" width="87" x="549" y="275"/><ellipse cx="564" cy="291" fill="#EB937F" rx="11" ry="11" style="stroke:#A80036;stroke-width:1.0;"/><path d="M562.7969,291.875 L564.25,291.875 L564.25,291.9844 C564.25,292.3906 564.2813,292.5469 564.3594,292.7031 C564.5156,292.9531 564.7969,293.1094 565.0938,293.1094 C565.3438,293.1094 565.6094,292.9688 565.7656,292.75 C565.8906,292.5938 565.9219,292.4375 565.9219,291.9844 L565.9219,290.0625 C565.9219,289.9063 565.9219,289.8594 565.9063,289.7031 C565.8438,289.2344 565.5313,288.9219 565.0781,288.9219 C564.8281,288.9219 564.5625,289.0625 564.3906,289.2813 C564.2813,289.4531 564.25,289.6094 564.25,290.0625 L564.25,290.1875 L562.7969,290.1875 L562.7969,287.7813 L566.7813,287.7813 L566.7813,288.6406 C566.7813,289.0469 566.8125,289.2188 566.8906,289.375 C567.0625,289.625 567.3438,289.7813 567.625,289.7813 C567.8906,289.7813 568.1563,289.6406 568.3281,289.4219 C568.4375,289.25 568.4688,289.1094 568.4688,288.6406 L568.4688,286.0938 L560.8438,286.0938 C560.4063,286.0938 560.2813,286.1094 560.125,286.2031 C559.875,286.3594 559.7188,286.6563 559.7188,286.9375 C559.7188,287.2188 559.8594,287.4688 560.0781,287.6406 C560.2344,287.75 560.4219,287.7813 560.8438,287.7813 L561.0938,287.7813 L561.0938,294.2969 L560.8438,294.2969 C560.4375,294.2969 560.2813,294.3125 560.125,294.4219 C559.875,294.5938 559.7188,294.8594 559.7188,295.1563 C559.7188,295.4219 559.8594,295.6719 560.0781,295.8281 C560.2188,295.9531 560.4531,296 560.8438,296 L568.8438,296 L568.8438,293.4219 C568.8438,292.9844 568.8125,292.8438 568.7344,292.6875 C568.5625,292.4375 568.2813,292.2813 568,292.2813 C567.7344,292.2813 567.4688,292.3906 567.2969,292.6406 C567.1875,292.7969 567.1563,292.9375 567.1563,293.4219 L567.1563,294.2969 L562.7969,294.2969 L562.7969,291.875 Z " fill="#000000"/><text fill="#000000" font-family="sans-serif" font-size="12" lengthAdjust="spacing" textLength="55" x="578" y="295.1543">UserRole</text><line style="stroke:#A80036;stroke-width:1.5;" x1="550" x2="635" y1="307" y2="307"/><text fill="#000000" font-family="sans-serif" font-size="11" lengthAdjust="spacing" textLength="37" x="555" y="321.2104">ADMIN</text><text fill="#000000" font-family="sans-serif" font-size="11" lengthAdjust="spacing" textLength="63" x="555" y="334.0151">CUSTOMER</text><line style="stroke:#A80036;stroke-width:1.5;" x1="550" x2="635" y1="340.6094" y2="340.6094"/><!--MD5=[134f7e6d1c88d9c94cdfa8eeb449b07d]
class Cloth--><rect codeLine="21" fill="#FEFECE" filter="url(#f85sps1p75jt3)" height="176.0469" id="Cloth" style="stroke:#A80036;stroke-width:1.5;" width="161" x="236" y="7"/><ellipse cx="297.25" cy="23" fill="#ADD1B2" rx="11" ry="11" style="stroke:#A80036;stroke-width:1.0;"/><path d="M296.0469,23.875 L297.5,23.875 L297.5,23.9844 C297.5,24.3906 297.5313,24.5469 297.6094,24.7031 C297.7656,24.9531 298.0469,25.1094 298.3438,25.1094 C298.5938,25.1094 298.8594,24.9688 299.0156,24.75 C299.1406,24.5938 299.1719,24.4375 299.1719,23.9844 L299.1719,22.0625 C299.1719,21.9063 299.1719,21.8594 299.1563,21.7031 C299.0938,21.2344 298.7813,20.9219 298.3281,20.9219 C298.0781,20.9219 297.8125,21.0625 297.6406,21.2813 C297.5313,21.4531 297.5,21.6094 297.5,22.0625 L297.5,22.1875 L296.0469,22.1875 L296.0469,19.7813 L300.0313,19.7813 L300.0313,20.6406 C300.0313,21.0469 300.0625,21.2188 300.1406,21.375 C300.3125,21.625 300.5938,21.7813 300.875,21.7813 C301.1406,21.7813 301.4063,21.6406 301.5781,21.4219 C301.6875,21.25 301.7188,21.1094 301.7188,20.6406 L301.7188,18.0938 L294.0938,18.0938 C293.6563,18.0938 293.5313,18.1094 293.375,18.2031 C293.125,18.3594 292.9688,18.6563 292.9688,18.9375 C292.9688,19.2188 293.1094,19.4688 293.3281,19.6406 C293.4844,19.75 293.6719,19.7813 294.0938,19.7813 L294.3438,19.7813 L294.3438,26.2969 L294.0938,26.2969 C293.6875,26.2969 293.5313,26.3125 293.375,26.4219 C293.125,26.5938 292.9688,26.8594 292.9688,27.1563 C292.9688,27.4219 293.1094,27.6719 293.3281,27.8281 C293.4688,27.9531 293.7031,28 294.0938,28 L302.0938,28 L302.0938,25.4219 C302.0938,24.9844 302.0625,24.8438 301.9844,24.6875 C301.8125,24.4375 301.5313,24.2813 301.25,24.2813 C300.9844,24.2813 300.7188,24.3906 300.5469,24.6406 C300.4375,24.7969 300.4063,24.9375 300.4063,25.4219 L300.4063,26.2969 L296.0469,26.2969 L296.0469,23.875 Z " fill="#000000"/><text fill="#000000" font-family="sans-serif" font-size="12" lengthAdjust="spacing" textLength="30" x="317.75" y="27.1543">Cloth</text><line style="stroke:#A80036;stroke-width:1.5;" x1="237" x2="396" y1="39" y2="39"/><ellipse cx="247" cy="50" fill="#000000" rx="3" ry="3" style="stroke:#000000;stroke-width:1.0;"/><text fill="#000000" font-family="sans-serif" font-size="11" lengthAdjust="spacing" textLength="31" x="256" y="53.2104">id: Int</text><ellipse cx="247" cy="62.8047" fill="#000000" rx="3" ry="3" style="stroke:#000000;stroke-width:1.0;"/><text fill="#000000" font-family="sans-serif" font-size="11" lengthAdjust="spacing" textLength="73" x="256" y="66.0151">name: String</text><ellipse cx="247" cy="75.6094" fill="#000000" rx="3" ry="3" style="stroke:#000000;stroke-width:1.0;"/><text fill="#000000" font-family="sans-serif" font-size="11" lengthAdjust="spacing" textLength="102" x="256" y="78.8198">description: String</text><ellipse cx="247" cy="88.4141" fill="#000000" rx="3" ry="3" style="stroke:#000000;stroke-width:1.0;"/><text fill="#000000" font-family="sans-serif" font-size="11" lengthAdjust="spacing" textLength="82" x="256" y="91.6245">price: Decimal</text><ellipse cx="247" cy="101.2188" fill="#000000" rx="3" ry="3" style="stroke:#000000;stroke-width:1.0;"/><text fill="#000000" font-family="sans-serif" font-size="11" lengthAdjust="spacing" textLength="91" x="256" y="104.4292">type: ClothType</text><ellipse cx="247" cy="114.0234" fill="#000000" rx="3" ry="3" style="stroke:#000000;stroke-width:1.0;"/><text fill="#000000" font-family="sans-serif" font-size="11" lengthAdjust="spacing" textLength="57" x="256" y="117.2339">typeId: Int</text><ellipse cx="247" cy="126.8281" fill="#000000" rx="3" ry="3" style="stroke:#000000;stroke-width:1.0;"/><text fill="#000000" font-family="sans-serif" font-size="11" lengthAdjust="spacing" textLength="72" x="256" y="130.0386">brand: Brand</text><ellipse cx="247" cy="139.6328" fill="#000000" rx="3" ry="3" style="stroke:#000000;stroke-width:1.0;"/><text fill="#000000" font-family="sans-serif" font-size="11" lengthAdjust="spacing" textLength="63" x="256" y="142.8433">brandId: Int</text><ellipse cx="247" cy="152.4375" fill="#000000" rx="3" ry="3" style="stroke:#000000;stroke-width:1.0;"/><text fill="#000000" font-family="sans-serif" font-size="11" lengthAdjust="spacing" textLength="65" x="256" y="155.6479">for: Gender</text><ellipse cx="247" cy="165.2422" fill="#000000" rx="3" ry="3" style="stroke:#000000;stroke-width:1.0;"/><text fill="#000000" font-family="sans-serif" font-size="11" lengthAdjust="spacing" textLength="135" x="256" y="168.4526">ClothPiece: ClothPiece[]</text><line style="stroke:#A80036;stroke-width:1.5;" x1="237" x2="396" y1="175.0469" y2="175.0469"/><!--MD5=[c96e6022f57fda69b5928d6b150e52c5]
class ClothPiece--><rect codeLine="34" fill="#FEFECE" filter="url(#f85sps1p75jt3)" height="112.0234" id="ClothPiece" style="stroke:#A80036;stroke-width:1.5;" width="99" x="119" y="256"/><ellipse cx="136.25" cy="272" fill="#ADD1B2" rx="11" ry="11" style="stroke:#A80036;stroke-width:1.0;"/><path d="M135.0469,272.875 L136.5,272.875 L136.5,272.9844 C136.5,273.3906 136.5313,273.5469 136.6094,273.7031 C136.7656,273.9531 137.0469,274.1094 137.3438,274.1094 C137.5938,274.1094 137.8594,273.9688 138.0156,273.75 C138.1406,273.5938 138.1719,273.4375 138.1719,272.9844 L138.1719,271.0625 C138.1719,270.9063 138.1719,270.8594 138.1563,270.7031 C138.0938,270.2344 137.7813,269.9219 137.3281,269.9219 C137.0781,269.9219 136.8125,270.0625 136.6406,270.2813 C136.5313,270.4531 136.5,270.6094 136.5,271.0625 L136.5,271.1875 L135.0469,271.1875 L135.0469,268.7813 L139.0313,268.7813 L139.0313,269.6406 C139.0313,270.0469 139.0625,270.2188 139.1406,270.375 C139.3125,270.625 139.5938,270.7813 139.875,270.7813 C140.1406,270.7813 140.4063,270.6406 140.5781,270.4219 C140.6875,270.25 140.7188,270.1094 140.7188,269.6406 L140.7188,267.0938 L133.0938,267.0938 C132.6563,267.0938 132.5313,267.1094 132.375,267.2031 C132.125,267.3594 131.9688,267.6563 131.9688,267.9375 C131.9688,268.2188 132.1094,268.4688 132.3281,268.6406 C132.4844,268.75 132.6719,268.7813 133.0938,268.7813 L133.3438,268.7813 L133.3438,275.2969 L133.0938,275.2969 C132.6875,275.2969 132.5313,275.3125 132.375,275.4219 C132.125,275.5938 131.9688,275.8594 131.9688,276.1563 C131.9688,276.4219 132.1094,276.6719 132.3281,276.8281 C132.4688,276.9531 132.7031,277 133.0938,277 L141.0938,277 L141.0938,274.4219 C141.0938,273.9844 141.0625,273.8438 140.9844,273.6875 C140.8125,273.4375 140.5313,273.2813 140.25,273.2813 C139.9844,273.2813 139.7188,273.3906 139.5469,273.6406 C139.4375,273.7969 139.4063,273.9375 139.4063,274.4219 L139.4063,275.2969 L135.0469,275.2969 L135.0469,272.875 Z " fill="#000000"/><text fill="#000000" font-family="sans-serif" font-size="12" lengthAdjust="spacing" textLength="62" x="150.75" y="276.1543">ClothPiece</text><line style="stroke:#A80036;stroke-width:1.5;" x1="120" x2="217" y1="288" y2="288"/><ellipse cx="130" cy="299" fill="#000000" rx="3" ry="3" style="stroke:#000000;stroke-width:1.0;"/><text fill="#000000" font-family="sans-serif" font-size="11" lengthAdjust="spacing" textLength="31" x="139" y="302.2104">id: Int</text><ellipse cx="130" cy="311.8047" fill="#000000" rx="3" ry="3" style="stroke:#000000;stroke-width:1.0;"/><text fill="#000000" font-family="sans-serif" font-size="11" lengthAdjust="spacing" textLength="63" x="139" y="315.0151">cloth: Cloth</text><ellipse cx="130" cy="324.6094" fill="#000000" rx="3" ry="3" style="stroke:#000000;stroke-width:1.0;"/><text fill="#000000" font-family="sans-serif" font-size="11" lengthAdjust="spacing" textLength="58" x="139" y="327.8198">clothId: Int</text><ellipse cx="130" cy="337.4141" fill="#000000" rx="3" ry="3" style="stroke:#000000;stroke-width:1.0;"/><text fill="#000000" font-family="sans-serif" font-size="11" lengthAdjust="spacing" textLength="57" x="139" y="340.6245">size: Size</text><ellipse cx="130" cy="350.2188" fill="#000000" rx="3" ry="3" style="stroke:#000000;stroke-width:1.0;"/><text fill="#000000" font-family="sans-serif" font-size="11" lengthAdjust="spacing" textLength="73" x="139" y="353.4292">avaliable: Int</text><line style="stroke:#A80036;stroke-width:1.5;" x1="120" x2="217" y1="360.0234" y2="360.0234"/><!--MD5=[4ccd5158e2a699345449b4929e0c104e]
class ClothType--><rect codeLine="42" fill="#FEFECE" filter="url(#f85sps1p75jt3)" height="86.4141" id="ClothType" style="stroke:#A80036;stroke-width:1.5;" width="126" x="253.5" y="269"/><ellipse cx="283.8" cy="285" fill="#ADD1B2" rx="11" ry="11" style="stroke:#A80036;stroke-width:1.0;"/><path d="M282.5969,285.875 L284.05,285.875 L284.05,285.9844 C284.05,286.3906 284.0813,286.5469 284.1594,286.7031 C284.3156,286.9531 284.5969,287.1094 284.8938,287.1094 C285.1438,287.1094 285.4094,286.9688 285.5656,286.75 C285.6906,286.5938 285.7219,286.4375 285.7219,285.9844 L285.7219,284.0625 C285.7219,283.9063 285.7219,283.8594 285.7063,283.7031 C285.6438,283.2344 285.3313,282.9219 284.8781,282.9219 C284.6281,282.9219 284.3625,283.0625 284.1906,283.2813 C284.0813,283.4531 284.05,283.6094 284.05,284.0625 L284.05,284.1875 L282.5969,284.1875 L282.5969,281.7813 L286.5813,281.7813 L286.5813,282.6406 C286.5813,283.0469 286.6125,283.2188 286.6906,283.375 C286.8625,283.625 287.1438,283.7813 287.425,283.7813 C287.6906,283.7813 287.9563,283.6406 288.1281,283.4219 C288.2375,283.25 288.2688,283.1094 288.2688,282.6406 L288.2688,280.0938 L280.6438,280.0938 C280.2063,280.0938 280.0813,280.1094 279.925,280.2031 C279.675,280.3594 279.5188,280.6563 279.5188,280.9375 C279.5188,281.2188 279.6594,281.4688 279.8781,281.6406 C280.0344,281.75 280.2219,281.7813 280.6438,281.7813 L280.8938,281.7813 L280.8938,288.2969 L280.6438,288.2969 C280.2375,288.2969 280.0813,288.3125 279.925,288.4219 C279.675,288.5938 279.5188,288.8594 279.5188,289.1563 C279.5188,289.4219 279.6594,289.6719 279.8781,289.8281 C280.0188,289.9531 280.2531,290 280.6438,290 L288.6438,290 L288.6438,287.4219 C288.6438,286.9844 288.6125,286.8438 288.5344,286.6875 C288.3625,286.4375 288.0813,286.2813 287.8,286.2813 C287.5344,286.2813 287.2688,286.3906 287.0969,286.6406 C286.9875,286.7969 286.9563,286.9375 286.9563,287.4219 L286.9563,288.2969 L282.5969,288.2969 L282.5969,285.875 Z " fill="#000000"/><text fill="#000000" font-family="sans-serif" font-size="12" lengthAdjust="spacing" textLength="60" x="301.2" y="289.1543">ClothType</text><line style="stroke:#A80036;stroke-width:1.5;" x1="254.5" x2="378.5" y1="301" y2="301"/><ellipse cx="264.5" cy="312" fill="#000000" rx="3" ry="3" style="stroke:#000000;stroke-width:1.0;"/><text fill="#000000" font-family="sans-serif" font-size="11" lengthAdjust="spacing" textLength="31" x="273.5" y="315.2104">id: Int</text><ellipse cx="264.5" cy="324.8047" fill="#000000" rx="3" ry="3" style="stroke:#000000;stroke-width:1.0;"/><text fill="#000000" font-family="sans-serif" font-size="11" lengthAdjust="spacing" textLength="100" x="273.5" y="328.0151">typeName: String</text><ellipse cx="264.5" cy="337.6094" fill="#000000" rx="3" ry="3" style="stroke:#000000;stroke-width:1.0;"/><text fill="#000000" font-family="sans-serif" font-size="11" lengthAdjust="spacing" textLength="73" x="273.5" y="340.8198">Cloth: Cloth[]</text><line style="stroke:#A80036;stroke-width:1.5;" x1="254.5" x2="378.5" y1="347.4141" y2="347.4141"/><!--MD5=[8a78b94ac034f628eee9959bc26304be]
class Brand--><rect codeLine="48" fill="#FEFECE" filter="url(#f85sps1p75jt3)" height="86.4141" id="Brand" style="stroke:#A80036;stroke-width:1.5;" width="99" x="415" y="269"/><ellipse cx="444.4" cy="285" fill="#ADD1B2" rx="11" ry="11" style="stroke:#A80036;stroke-width:1.0;"/><path d="M443.1969,285.875 L444.65,285.875 L444.65,285.9844 C444.65,286.3906 444.6813,286.5469 444.7594,286.7031 C444.9156,286.9531 445.1969,287.1094 445.4938,287.1094 C445.7438,287.1094 446.0094,286.9688 446.1656,286.75 C446.2906,286.5938 446.3219,286.4375 446.3219,285.9844 L446.3219,284.0625 C446.3219,283.9063 446.3219,283.8594 446.3063,283.7031 C446.2438,283.2344 445.9313,282.9219 445.4781,282.9219 C445.2281,282.9219 444.9625,283.0625 444.7906,283.2813 C444.6813,283.4531 444.65,283.6094 444.65,284.0625 L444.65,284.1875 L443.1969,284.1875 L443.1969,281.7813 L447.1813,281.7813 L447.1813,282.6406 C447.1813,283.0469 447.2125,283.2188 447.2906,283.375 C447.4625,283.625 447.7438,283.7813 448.025,283.7813 C448.2906,283.7813 448.5563,283.6406 448.7281,283.4219 C448.8375,283.25 448.8688,283.1094 448.8688,282.6406 L448.8688,280.0938 L441.2438,280.0938 C440.8063,280.0938 440.6813,280.1094 440.525,280.2031 C440.275,280.3594 440.1188,280.6563 440.1188,280.9375 C440.1188,281.2188 440.2594,281.4688 440.4781,281.6406 C440.6344,281.75 440.8219,281.7813 441.2438,281.7813 L441.4938,281.7813 L441.4938,288.2969 L441.2438,288.2969 C440.8375,288.2969 440.6813,288.3125 440.525,288.4219 C440.275,288.5938 440.1188,288.8594 440.1188,289.1563 C440.1188,289.4219 440.2594,289.6719 440.4781,289.8281 C440.6188,289.9531 440.8531,290 441.2438,290 L449.2438,290 L449.2438,287.4219 C449.2438,286.9844 449.2125,286.8438 449.1344,286.6875 C448.9625,286.4375 448.6813,286.2813 448.4,286.2813 C448.1344,286.2813 447.8688,286.3906 447.6969,286.6406 C447.5875,286.7969 447.5563,286.9375 447.5563,287.4219 L447.5563,288.2969 L443.1969,288.2969 L443.1969,285.875 Z " fill="#000000"/><text fill="#000000" font-family="sans-serif" font-size="12" lengthAdjust="spacing" textLength="35" x="461.6" y="289.1543">Brand</text><line style="stroke:#A80036;stroke-width:1.5;" x1="416" x2="513" y1="301" y2="301"/><ellipse cx="426" cy="312" fill="#000000" rx="3" ry="3" style="stroke:#000000;stroke-width:1.0;"/><text fill="#000000" font-family="sans-serif" font-size="11" lengthAdjust="spacing" textLength="31" x="435" y="315.2104">id: Int</text><ellipse cx="426" cy="324.8047" fill="#000000" rx="3" ry="3" style="stroke:#000000;stroke-width:1.0;"/><text fill="#000000" font-family="sans-serif" font-size="11" lengthAdjust="spacing" textLength="73" x="435" y="328.0151">name: String</text><ellipse cx="426" cy="337.6094" fill="#000000" rx="3" ry="3" style="stroke:#000000;stroke-width:1.0;"/><text fill="#000000" font-family="sans-serif" font-size="11" lengthAdjust="spacing" textLength="73" x="435" y="340.8198">Cloth: Cloth[]</text><line style="stroke:#A80036;stroke-width:1.5;" x1="416" x2="513" y1="347.4141" y2="347.4141"/><!--MD5=[3fd616f346a44cd59a91eb10b19e157c]
class User--><rect codeLine="54" fill="#FEFECE" filter="url(#f85sps1p75jt3)" height="124.8281" id="User" style="stroke:#A80036;stroke-width:1.5;" width="170" x="507.5" y="32.5"/><ellipse cx="573.75" cy="48.5" fill="#ADD1B2" rx="11" ry="11" style="stroke:#A80036;stroke-width:1.0;"/><path d="M572.5469,49.375 L574,49.375 L574,49.4844 C574,49.8906 574.0313,50.0469 574.1094,50.2031 C574.2656,50.4531 574.5469,50.6094 574.8438,50.6094 C575.0938,50.6094 575.3594,50.4688 575.5156,50.25 C575.6406,50.0938 575.6719,49.9375 575.6719,49.4844 L575.6719,47.5625 C575.6719,47.4063 575.6719,47.3594 575.6563,47.2031 C575.5938,46.7344 575.2813,46.4219 574.8281,46.4219 C574.5781,46.4219 574.3125,46.5625 574.1406,46.7813 C574.0313,46.9531 574,47.1094 574,47.5625 L574,47.6875 L572.5469,47.6875 L572.5469,45.2813 L576.5313,45.2813 L576.5313,46.1406 C576.5313,46.5469 576.5625,46.7188 576.6406,46.875 C576.8125,47.125 577.0938,47.2813 577.375,47.2813 C577.6406,47.2813 577.9063,47.1406 578.0781,46.9219 C578.1875,46.75 578.2188,46.6094 578.2188,46.1406 L578.2188,43.5938 L570.5938,43.5938 C570.1563,43.5938 570.0313,43.6094 569.875,43.7031 C569.625,43.8594 569.4688,44.1563 569.4688,44.4375 C569.4688,44.7188 569.6094,44.9688 569.8281,45.1406 C569.9844,45.25 570.1719,45.2813 570.5938,45.2813 L570.8438,45.2813 L570.8438,51.7969 L570.5938,51.7969 C570.1875,51.7969 570.0313,51.8125 569.875,51.9219 C569.625,52.0938 569.4688,52.3594 569.4688,52.6563 C569.4688,52.9219 569.6094,53.1719 569.8281,53.3281 C569.9688,53.4531 570.2031,53.5 570.5938,53.5 L578.5938,53.5 L578.5938,50.9219 C578.5938,50.4844 578.5625,50.3438 578.4844,50.1875 C578.3125,49.9375 578.0313,49.7813 577.75,49.7813 C577.4844,49.7813 577.2188,49.8906 577.0469,50.1406 C576.9375,50.2969 576.9063,50.4375 576.9063,50.9219 L576.9063,51.7969 L572.5469,51.7969 L572.5469,49.375 Z " fill="#000000"/><text fill="#000000" font-family="sans-serif" font-size="12" lengthAdjust="spacing" textLength="29" x="594.25" y="52.6543">User</text><line style="stroke:#A80036;stroke-width:1.5;" x1="508.5" x2="676.5" y1="64.5" y2="64.5"/><ellipse cx="518.5" cy="75.5" fill="#000000" rx="3" ry="3" style="stroke:#000000;stroke-width:1.0;"/><text fill="#000000" font-family="sans-serif" font-size="11" lengthAdjust="spacing" textLength="31" x="527.5" y="78.7104">id: Int</text><ellipse cx="518.5" cy="88.3047" fill="#000000" rx="3" ry="3" style="stroke:#000000;stroke-width:1.0;"/><text fill="#000000" font-family="sans-serif" font-size="11" lengthAdjust="spacing" textLength="72" x="527.5" y="91.5151">email: String</text><ellipse cx="518.5" cy="101.1094" fill="#000000" rx="3" ry="3" style="stroke:#000000;stroke-width:1.0;"/><text fill="#000000" font-family="sans-serif" font-size="11" lengthAdjust="spacing" textLength="98" x="527.5" y="104.3198">username: String</text><ellipse cx="518.5" cy="113.9141" fill="#000000" rx="3" ry="3" style="stroke:#000000;stroke-width:1.0;"/><text fill="#000000" font-family="sans-serif" font-size="11" lengthAdjust="spacing" textLength="93" x="527.5" y="117.1245">password: String</text><ellipse cx="518.5" cy="126.7188" fill="#000000" rx="3" ry="3" style="stroke:#000000;stroke-width:1.0;"/><text fill="#000000" font-family="sans-serif" font-size="11" lengthAdjust="spacing" textLength="80" x="527.5" y="129.9292">role: UserRole</text><text fill="#000000" font-family="sans-serif" font-size="11" lengthAdjust="spacing" textLength="144" x="527.5" y="142.7339">userDetails: UserDetails?</text><line style="stroke:#A80036;stroke-width:1.5;" x1="508.5" x2="676.5" y1="149.3281" y2="149.3281"/><!--MD5=[46be0f02d3ccb60e27af689741ef5b84]
class UserDetails--><rect codeLine="63" fill="#FEFECE" filter="url(#f85sps1p75jt3)" height="137.6328" id="UserDetails" style="stroke:#A80036;stroke-width:1.5;" width="130" x="671.5" y="243"/><ellipse cx="699.1" cy="259" fill="#ADD1B2" rx="11" ry="11" style="stroke:#A80036;stroke-width:1.0;"/><path d="M697.8969,259.875 L699.35,259.875 L699.35,259.9844 C699.35,260.3906 699.3813,260.5469 699.4594,260.7031 C699.6156,260.9531 699.8969,261.1094 700.1938,261.1094 C700.4438,261.1094 700.7094,260.9688 700.8656,260.75 C700.9906,260.5938 701.0219,260.4375 701.0219,259.9844 L701.0219,258.0625 C701.0219,257.9063 701.0219,257.8594 701.0063,257.7031 C700.9438,257.2344 700.6313,256.9219 700.1781,256.9219 C699.9281,256.9219 699.6625,257.0625 699.4906,257.2813 C699.3813,257.4531 699.35,257.6094 699.35,258.0625 L699.35,258.1875 L697.8969,258.1875 L697.8969,255.7813 L701.8813,255.7813 L701.8813,256.6406 C701.8813,257.0469 701.9125,257.2188 701.9906,257.375 C702.1625,257.625 702.4438,257.7813 702.725,257.7813 C702.9906,257.7813 703.2563,257.6406 703.4281,257.4219 C703.5375,257.25 703.5688,257.1094 703.5688,256.6406 L703.5688,254.0938 L695.9438,254.0938 C695.5063,254.0938 695.3813,254.1094 695.225,254.2031 C694.975,254.3594 694.8188,254.6563 694.8188,254.9375 C694.8188,255.2188 694.9594,255.4688 695.1781,255.6406 C695.3344,255.75 695.5219,255.7813 695.9438,255.7813 L696.1938,255.7813 L696.1938,262.2969 L695.9438,262.2969 C695.5375,262.2969 695.3813,262.3125 695.225,262.4219 C694.975,262.5938 694.8188,262.8594 694.8188,263.1563 C694.8188,263.4219 694.9594,263.6719 695.1781,263.8281 C695.3188,263.9531 695.5531,264 695.9438,264 L703.9438,264 L703.9438,261.4219 C703.9438,260.9844 703.9125,260.8438 703.8344,260.6875 C703.6625,260.4375 703.3813,260.2813 703.1,260.2813 C702.8344,260.2813 702.5688,260.3906 702.3969,260.6406 C702.2875,260.7969 702.2563,260.9375 702.2563,261.4219 L702.2563,262.2969 L697.8969,262.2969 L697.8969,259.875 Z " fill="#000000"/><text fill="#000000" font-family="sans-serif" font-size="12" lengthAdjust="spacing" textLength="70" x="715.9" y="263.1543">UserDetails</text><line style="stroke:#A80036;stroke-width:1.5;" x1="672.5" x2="800.5" y1="275" y2="275"/><ellipse cx="682.5" cy="286" fill="#000000" rx="3" ry="3" style="stroke:#000000;stroke-width:1.0;"/><text fill="#000000" font-family="sans-serif" font-size="11" lengthAdjust="spacing" textLength="31" x="691.5" y="289.2104">id: Int</text><ellipse cx="682.5" cy="298.8047" fill="#000000" rx="3" ry="3" style="stroke:#000000;stroke-width:1.0;"/><text fill="#000000" font-family="sans-serif" font-size="11" lengthAdjust="spacing" textLength="73" x="691.5" y="302.0151">name: String</text><ellipse cx="682.5" cy="311.6094" fill="#000000" rx="3" ry="3" style="stroke:#000000;stroke-width:1.0;"/><text fill="#000000" font-family="sans-serif" font-size="11" lengthAdjust="spacing" textLength="90" x="691.5" y="314.8198">surname: String</text><ellipse cx="682.5" cy="324.4141" fill="#000000" rx="3" ry="3" style="stroke:#000000;stroke-width:1.0;"/><text fill="#000000" font-family="sans-serif" font-size="11" lengthAdjust="spacing" textLength="76" x="691.5" y="327.6245">phone: String</text><text fill="#000000" font-family="sans-serif" font-size="11" lengthAdjust="spacing" textLength="104" x="691.5" y="340.4292">address: Address?</text><ellipse cx="682.5" cy="350.0234" fill="#000000" rx="3" ry="3" style="stroke:#000000;stroke-width:1.0;"/><text fill="#000000" font-family="sans-serif" font-size="11" lengthAdjust="spacing" textLength="58" x="691.5" y="353.2339">user: User</text><ellipse cx="682.5" cy="362.8281" fill="#000000" rx="3" ry="3" style="stroke:#000000;stroke-width:1.0;"/><text fill="#000000" font-family="sans-serif" font-size="11" lengthAdjust="spacing" textLength="56" x="691.5" y="366.0386">userId: Int</text><line style="stroke:#A80036;stroke-width:1.5;" x1="672.5" x2="800.5" y1="372.6328" y2="372.6328"/><!--MD5=[0f39e4cb6f03951afbf6d14bd2505654]
class Address--><rect codeLine="73" fill="#FEFECE" filter="url(#f85sps1p75jt3)" height="137.6328" id="Address" style="stroke:#A80036;stroke-width:1.5;" width="164" x="654.5" y="441"/><ellipse cx="706.75" cy="457" fill="#ADD1B2" rx="11" ry="11" style="stroke:#A80036;stroke-width:1.0;"/><path d="M705.5469,457.875 L707,457.875 L707,457.9844 C707,458.3906 707.0313,458.5469 707.1094,458.7031 C707.2656,458.9531 707.5469,459.1094 707.8438,459.1094 C708.0938,459.1094 708.3594,458.9688 708.5156,458.75 C708.6406,458.5938 708.6719,458.4375 708.6719,457.9844 L708.6719,456.0625 C708.6719,455.9063 708.6719,455.8594 708.6563,455.7031 C708.5938,455.2344 708.2813,454.9219 707.8281,454.9219 C707.5781,454.9219 707.3125,455.0625 707.1406,455.2813 C707.0313,455.4531 707,455.6094 707,456.0625 L707,456.1875 L705.5469,456.1875 L705.5469,453.7813 L709.5313,453.7813 L709.5313,454.6406 C709.5313,455.0469 709.5625,455.2188 709.6406,455.375 C709.8125,455.625 710.0938,455.7813 710.375,455.7813 C710.6406,455.7813 710.9063,455.6406 711.0781,455.4219 C711.1875,455.25 711.2188,455.1094 711.2188,454.6406 L711.2188,452.0938 L703.5938,452.0938 C703.1563,452.0938 703.0313,452.1094 702.875,452.2031 C702.625,452.3594 702.4688,452.6563 702.4688,452.9375 C702.4688,453.2188 702.6094,453.4688 702.8281,453.6406 C702.9844,453.75 703.1719,453.7813 703.5938,453.7813 L703.8438,453.7813 L703.8438,460.2969 L703.5938,460.2969 C703.1875,460.2969 703.0313,460.3125 702.875,460.4219 C702.625,460.5938 702.4688,460.8594 702.4688,461.1563 C702.4688,461.4219 702.6094,461.6719 702.8281,461.8281 C702.9688,461.9531 703.2031,462 703.5938,462 L711.5938,462 L711.5938,459.4219 C711.5938,458.9844 711.5625,458.8438 711.4844,458.6875 C711.3125,458.4375 711.0313,458.2813 710.75,458.2813 C710.4844,458.2813 710.2188,458.3906 710.0469,458.6406 C709.9375,458.7969 709.9063,458.9375 709.9063,459.4219 L709.9063,460.2969 L705.5469,460.2969 L705.5469,457.875 Z " fill="#000000"/><text fill="#000000" font-family="sans-serif" font-size="12" lengthAdjust="spacing" textLength="51" x="727.25" y="461.1543">Address</text><line style="stroke:#A80036;stroke-width:1.5;" x1="655.5" x2="817.5" y1="473" y2="473"/><ellipse cx="665.5" cy="484" fill="#000000" rx="3" ry="3" style="stroke:#000000;stroke-width:1.0;"/><text fill="#000000" font-family="sans-serif" font-size="11" lengthAdjust="spacing" textLength="31" x="674.5" y="487.2104">id: Int</text><ellipse cx="665.5" cy="496.8047" fill="#000000" rx="3" ry="3" style="stroke:#000000;stroke-width:1.0;"/><text fill="#000000" font-family="sans-serif" font-size="11" lengthAdjust="spacing" textLength="60" x="674.5" y="500.0151">city: String</text><ellipse cx="665.5" cy="509.6094" fill="#000000" rx="3" ry="3" style="stroke:#000000;stroke-width:1.0;"/><text fill="#000000" font-family="sans-serif" font-size="11" lengthAdjust="spacing" textLength="89" x="674.5" y="512.8198">province: String</text><ellipse cx="665.5" cy="522.4141" fill="#000000" rx="3" ry="3" style="stroke:#000000;stroke-width:1.0;"/><text fill="#000000" font-family="sans-serif" font-size="11" lengthAdjust="spacing" textLength="74" x="674.5" y="525.6245">street: String</text><ellipse cx="665.5" cy="535.2188" fill="#000000" rx="3" ry="3" style="stroke:#000000;stroke-width:1.0;"/><text fill="#000000" font-family="sans-serif" font-size="11" lengthAdjust="spacing" textLength="95" x="674.5" y="538.4292">house_no: String</text><ellipse cx="665.5" cy="548.0234" fill="#000000" rx="3" ry="3" style="stroke:#000000;stroke-width:1.0;"/><text fill="#000000" font-family="sans-serif" font-size="11" lengthAdjust="spacing" textLength="138" x="674.5" y="551.2339">userDetails: UserDetails</text><ellipse cx="665.5" cy="560.8281" fill="#000000" rx="3" ry="3" style="stroke:#000000;stroke-width:1.0;"/><text fill="#000000" font-family="sans-serif" font-size="11" lengthAdjust="spacing" textLength="96" x="674.5" y="564.0386">userDetailsId: Int</text><line style="stroke:#A80036;stroke-width:1.5;" x1="655.5" x2="817.5" y1="570.6328" y2="570.6328"/><!--MD5=[c8233f4b66134f4d89a095963d448122]
link Cloth to ClothType--><path codeLine="83" d="M295.5,191.262 C295.5,191.262 295.5,260.998 295.5,260.998 " fill="none" id="Cloth-ClothType" style="stroke:#A80036;stroke-width:1.0;stroke-dasharray:7.0,7.0;"/><line style="stroke:#A80036;stroke-width:1.0;" x1="299.5" x2="291.5" y1="264.998" y2="264.998"/><line style="stroke:#A80036;stroke-width:1.0;" x1="299.5" x2="291.5" y1="261.998" y2="261.998"/><line style="stroke:#A80036;stroke-width:1.0;" x1="295.5" x2="295.5" y1="260.998" y2="268.998"/><line style="stroke:#A80036;stroke-width:1.0;" x1="295.5" x2="289.5" y1="191.262" y2="183.262"/><line style="stroke:#A80036;stroke-width:1.0;" x1="295.5" x2="301.5" y1="191.262" y2="183.262"/><line style="stroke:#A80036;stroke-width:1.0;" x1="295.5" x2="295.5" y1="191.262" y2="183.262"/><line style="stroke:#A80036;stroke-width:1.0;" x1="291.5" x2="299.5" y1="193.262" y2="193.262"/><!--MD5=[c8233f4b66134f4d89a095963d448122]
link Cloth to ClothType--><path codeLine="85" d="M337.5,191.262 C337.5,191.262 337.5,260.998 337.5,260.998 " fill="none" id="Cloth-ClothType-1" style="stroke:#A80036;stroke-width:1.0;stroke-dasharray:7.0,7.0;"/><line style="stroke:#A80036;stroke-width:1.0;" x1="341.5" x2="333.5" y1="264.998" y2="264.998"/><line style="stroke:#A80036;stroke-width:1.0;" x1="341.5" x2="333.5" y1="261.998" y2="261.998"/><line style="stroke:#A80036;stroke-width:1.0;" x1="337.5" x2="337.5" y1="260.998" y2="268.998"/><line style="stroke:#A80036;stroke-width:1.0;" x1="337.5" x2="331.5" y1="191.262" y2="183.262"/><line style="stroke:#A80036;stroke-width:1.0;" x1="337.5" x2="343.5" y1="191.262" y2="183.262"/><line style="stroke:#A80036;stroke-width:1.0;" x1="337.5" x2="337.5" y1="191.262" y2="183.262"/><line style="stroke:#A80036;stroke-width:1.0;" x1="333.5" x2="341.5" y1="193.262" y2="193.262"/><!--MD5=[59d49a0fa4da4f9c5f8d9112738afe1b]
link Cloth to ClothPiece--><path codeLine="84" d="M244.75,191.428 C244.75,191.428 244.75,263 244.75,263 C244.75,263 226.081,263 226.081,263 " fill="none" id="Cloth-ClothPiece" style="stroke:#A80036;stroke-width:1.0;stroke-dasharray:7.0,7.0;"/><line style="stroke:#A80036;stroke-width:1.0;" x1="226.081" x2="218.081" y1="263" y2="269"/><line style="stroke:#A80036;stroke-width:1.0;" x1="226.081" x2="218.081" y1="263" y2="257"/><line style="stroke:#A80036;stroke-width:1.0;" x1="226.081" x2="218.081" y1="263" y2="263"/><line style="stroke:#A80036;stroke-width:1.0;" x1="228.081" x2="228.081" y1="267" y2="259"/><line style="stroke:#A80036;stroke-width:1.0;" x1="240.75" x2="248.75" y1="187.428" y2="187.428"/><line style="stroke:#A80036;stroke-width:1.0;" x1="240.75" x2="248.75" y1="190.428" y2="190.428"/><line style="stroke:#A80036;stroke-width:1.0;" x1="244.75" x2="244.75" y1="191.428" y2="183.428"/><!--MD5=[1c165fcf9143c4ffbd186136427b9aab]
link Cloth to Brand--><path codeLine="86" d="M388.25,191.262 C388.25,191.262 388.25,312 388.25,312 C388.25,312 406.919,312 406.919,312 " fill="none" id="Cloth-Brand" style="stroke:#A80036;stroke-width:1.0;stroke-dasharray:7.0,7.0;"/><line style="stroke:#A80036;stroke-width:1.0;" x1="410.919" x2="410.919" y1="308" y2="316"/><line style="stroke:#A80036;stroke-width:1.0;" x1="407.919" x2="407.919" y1="308" y2="316"/><line style="stroke:#A80036;stroke-width:1.0;" x1="406.919" x2="414.919" y1="312" y2="312"/><line style="stroke:#A80036;stroke-width:1.0;" x1="388.25" x2="382.25" y1="191.262" y2="183.262"/><line style="stroke:#A80036;stroke-width:1.0;" x1="388.25" x2="394.25" y1="191.262" y2="183.262"/><line style="stroke:#A80036;stroke-width:1.0;" x1="388.25" x2="388.25" y1="191.262" y2="183.262"/><line style="stroke:#A80036;stroke-width:1.0;" x1="384.25" x2="392.25" y1="193.262" y2="193.262"/><!--MD5=[1f12d177c84922ed4f166f09ee62ceaa]
link User to UserRole--><path codeLine="87" d="M578,164.765 C578,164.765 578,267.841 578,267.841 " fill="none" id="User-UserRole" style="stroke:#A80036;stroke-width:1.0;stroke-dasharray:7.0,7.0;"/><line style="stroke:#A80036;stroke-width:1.0;" x1="582" x2="574" y1="270.841" y2="270.841"/><line style="stroke:#A80036;stroke-width:1.0;" x1="582" x2="574" y1="267.841" y2="267.841"/><line style="stroke:#A80036;stroke-width:1.0;" x1="578" x2="578" y1="266.841" y2="274.841"/><line style="stroke:#A80036;stroke-width:1.0;" x1="574" x2="582" y1="161.765" y2="161.765"/><line style="stroke:#A80036;stroke-width:1.0;" x1="574" x2="582" y1="164.765" y2="164.765"/><line style="stroke:#A80036;stroke-width:1.0;" x1="578" x2="578" y1="165.765" y2="157.765"/><!--MD5=[1f12d177c84922ed4f166f09ee62ceaa]
link User to UserRole--><path codeLine="92" d="M607,164.765 C607,164.765 607,267.841 607,267.841 " fill="none" id="User-UserRole-1" style="stroke:#A80036;stroke-width:1.0;stroke-dasharray:7.0,7.0;"/><line style="stroke:#A80036;stroke-width:1.0;" x1="611" x2="603" y1="270.841" y2="270.841"/><line style="stroke:#A80036;stroke-width:1.0;" x1="611" x2="603" y1="267.841" y2="267.841"/><line style="stroke:#A80036;stroke-width:1.0;" x1="607" x2="607" y1="266.841" y2="274.841"/><line style="stroke:#A80036;stroke-width:1.0;" x1="603" x2="611" y1="161.765" y2="161.765"/><line style="stroke:#A80036;stroke-width:1.0;" x1="603" x2="611" y1="164.765" y2="164.765"/><line style="stroke:#A80036;stroke-width:1.0;" x1="607" x2="607" y1="165.765" y2="157.765"/><!--MD5=[906bb9b3413e2285dd4882a415d9e8c9]
link User to UserDetails--><path codeLine="88" d="M663,165.598 C663,165.598 663,250 663,250 C663,250 663.843,250 663.843,250 " fill="none" id="User-UserDetails" style="stroke:#A80036;stroke-width:1.0;stroke-dasharray:7.0,7.0;"/><line style="stroke:#A80036;stroke-width:1.0;" x1="660.431" x2="671.431" y1="250" y2="250"/><ellipse cx="660.431" cy="250" rx="4" ry="4" style="stroke:#A80036;stroke-width:1.0;fill:none;"/><line style="stroke:#A80036;stroke-width:1.0;fill:none;" x1="667.431" x2="667.431" y1="246" y2="254"/><line style="stroke:#A80036;stroke-width:1.0;fill:none;" x1="659" x2="667" y1="161.598" y2="161.598"/><line style="stroke:#A80036;stroke-width:1.0;fill:none;" x1="659" x2="667" y1="164.598" y2="164.598"/><line style="stroke:#A80036;stroke-width:1.0;fill:none;" x1="663" x2="663" y1="165.598" y2="157.598"/><!--MD5=[2c3b499ca9e5bf7271532eb9d202084e]
link UserDetails to Address--><path codeLine="89" d="M736.5,389.251 C736.5,389.251 736.5,432.788 736.5,432.788 " fill="none" id="UserDetails-Address" style="stroke:#A80036;stroke-width:1.0;stroke-dasharray:7.0,7.0;"/><line style="stroke:#A80036;stroke-width:1.0;" x1="736.5" x2="736.5" y1="429.788" y2="440.788"/><ellipse cx="736.5" cy="429.788" rx="4" ry="4" style="stroke:#A80036;stroke-width:1.0;fill:none;"/><line style="stroke:#A80036;stroke-width:1.0;fill:none;" x1="740.5" x2="732.5" y1="436.788" y2="436.788"/><line style="stroke:#A80036;stroke-width:1.0;fill:none;" x1="732.5" x2="740.5" y1="385.251" y2="385.251"/><line style="stroke:#A80036;stroke-width:1.0;fill:none;" x1="732.5" x2="740.5" y1="388.251" y2="388.251"/><line style="stroke:#A80036;stroke-width:1.0;fill:none;" x1="736.5" x2="736.5" y1="389.251" y2="381.251"/><!--MD5=[f3678b29eaa0076cf8f9f84ba95e657a]
link Cloth to Gender--><path codeLine="90" d="M228.925,95 C228.925,95 45.5,95 45.5,95 C45.5,95 45.5,267.696 45.5,267.696 " fill="none" id="Cloth-Gender" style="stroke:#A80036;stroke-width:1.0;stroke-dasharray:7.0,7.0;"/><line style="stroke:#A80036;stroke-width:1.0;" x1="49.5" x2="41.5" y1="270.696" y2="270.696"/><line style="stroke:#A80036;stroke-width:1.0;" x1="49.5" x2="41.5" y1="267.696" y2="267.696"/><line style="stroke:#A80036;stroke-width:1.0;" x1="45.5" x2="45.5" y1="266.696" y2="274.696"/><line style="stroke:#A80036;stroke-width:1.0;" x1="231.925" x2="231.925" y1="91" y2="99"/><line style="stroke:#A80036;stroke-width:1.0;" x1="228.925" x2="228.925" y1="91" y2="99"/><line style="stroke:#A80036;stroke-width:1.0;" x1="227.925" x2="235.925" y1="95" y2="95"/><!--MD5=[f38f62e8cb6d294713e6a5cc58c71778]
link ClothPiece to Size--><path codeLine="91" d="M168.5,375.209 C168.5,375.209 168.5,446.993 168.5,446.993 " fill="none" id="ClothPiece-Size" style="stroke:#A80036;stroke-width:1.0;stroke-dasharray:7.0,7.0;"/><line style="stroke:#A80036;stroke-width:1.0;" x1="172.5" x2="164.5" y1="449.993" y2="449.993"/><line style="stroke:#A80036;stroke-width:1.0;" x1="172.5" x2="164.5" y1="446.993" y2="446.993"/><line style="stroke:#A80036;stroke-width:1.0;" x1="168.5" x2="168.5" y1="445.993" y2="453.993"/><line style="stroke:#A80036;stroke-width:1.0;" x1="164.5" x2="172.5" y1="372.209" y2="372.209"/><line style="stroke:#A80036;stroke-width:1.0;" x1="164.5" x2="172.5" y1="375.209" y2="375.209"/><line style="stroke:#A80036;stroke-width:1.0;" x1="168.5" x2="168.5" y1="376.209" y2="368.209"/><!--MD5=[1d1767d46eba49336c312c7a07e37875]
@startuml
skinparam linetype ortho

enum Gender {
  MALE
  FEMALE
}

enum Size {
  XS
  S
  M
  L
  XL
}

enum UserRole {
  ADMIN
  CUSTOMER
}

entity Cloth {
  * id: Int
  * name: String
  * description: String
  * price: Decimal
  * type: ClothType
  * typeId: Int
  * brand: Brand
  * brandId: Int
  * for: Gender
  * ClothPiece: ClothPiece[]
}

entity ClothPiece {
  * id: Int
  * cloth: Cloth
  * clothId: Int
  * size: Size
  * avaliable: Int
}

entity ClothType {
  * id: Int
  * typeName: String
  * Cloth: Cloth[]
}

entity Brand {
  * id: Int
  * name: String
  * Cloth: Cloth[]
}

entity User {
  * id: Int
  * email: String
  * username: String
  * password: String
  * role: UserRole
  userDetails: UserDetails?
}

entity UserDetails {
  * id: Int
  * name: String
  * surname: String
  * phone: String
  address: Address?
  * user: User
  * userId: Int
}

entity Address {
  * id: Int
  * city: String
  * province: String
  * street: String
  * house_no: String
  * userDetails: UserDetails
  * userDetailsId: Int
}

Cloth }|..|| ClothType
Cloth ||..|{ ClothPiece
Cloth }|..|| ClothType
Cloth }|..|| Brand
User ||..|| UserRole
User ||..o| UserDetails
UserDetails ||..o| Address
Cloth ||..|| Gender
ClothPiece ||..|| Size
User ||..|| UserRole
@enduml

PlantUML version 1.2021.7(Sun May 23 12:40:07 UTC 2021)
(GPL source distribution)
Java Runtime: Java(TM) SE Runtime Environment
JVM: Java HotSpot(TM) 64-Bit Server VM
Default Encoding: UTF-8
Language: en
Country: US
--></g></svg>